<svg width="32" height="32" viewBox="0 0 72 72" fill="none" xmlns="http://www.w3.org/2000/svg">
  <rect x="4" y="4" width="64" height="64" rx="16" fill="#0f766e"/>
  <!-- Document -->
  <rect x="12" y="18" width="22" height="28" rx="3" fill="#fff" opacity="0.95"/>
  <line x1="16" y1="26" x2="30" y2="26" stroke="#0d9488" stroke-width="1.5" stroke-linecap="round" opacity="0.5"/>
  <line x1="16" y1="30" x2="27" y2="30" stroke="#0d9488" stroke-width="1.5" stroke-linecap="round" opacity="0.5"/>
  <line x1="16" y1="34" x2="24" y2="34" stroke="#0d9488" stroke-width="1.5" stroke-linecap="round" opacity="0.5"/>
  <line x1="16" y1="38" x2="28" y2="38" stroke="#0d9488" stroke-width="1.5" stroke-linecap="round" opacity="0.5"/>
  <!-- Microphone -->
  <rect x="42" y="14" width="12" height="18" rx="6" fill="#fff" opacity="0.95"/>
  <path d="M42 27 Q42 35 48 35 Q54 35 54 27" stroke="#fff" stroke-width="2" stroke-linecap="round" fill="none" opacity="0.7"/>
  <line x1="48" y1="35" x2="48" y2="40" stroke="#fff" stroke-width="2" stroke-linecap="round" opacity="0.7"/>
  <line x1="44" y1="40" x2="52" y2="40" stroke="#fff" stroke-width="2" stroke-linecap="round" opacity="0.7"/>
  <!-- Stethoscope disc -->
  <circle cx="48" cy="54" r="9" fill="#fff" opacity="0.95"/>
  <circle cx="48" cy="54" r="5.5" fill="#0f766e"/>
  <circle cx="48" cy="54" r="2.5" fill="#fff" opacity="0.8"/>
</svg>
